<svg xmlns="http://www.w3.org/2000/svg" width="18" height="17.991" viewBox="0 0 18 17.991">
  <path id="Path_6827" data-name="Path 6827" d="M1077.984,8594.145a1.789,1.789,0,0,0-1.791,1.79v14.41a1.79,1.79,0,0,0,1.791,1.791H1092.4a1.79,1.79,0,0,0,1.791-1.791v-14.41a1.789,1.789,0,0,0-1.791-1.79Zm13.509,4.5a1.8,1.8,0,1,0-1.8-1.8A1.8,1.8,0,0,0,1091.493,8598.643Zm-6.3,9.895a5.4,5.4,0,1,1,5.4-5.4A5.4,5.4,0,0,1,1085.193,8608.537Zm0-1.8a3.6,3.6,0,1,0-3.6-3.6A3.6,3.6,0,0,0,1085.193,8606.738Z" transform="translate(-1076.193 -8594.145)" fill="#f5fafa" fill-rule="evenodd"/>
</svg>
