<svg xmlns="http://www.w3.org/2000/svg" width="18" height="17.999" viewBox="0 0 18 17.999">
  <path id="Path_129" data-name="Path 129" d="M1289.595,8605.662v6.4a.27.27,0,0,1-.27.27h-3.493a.276.276,0,0,1-.276-.27v-5.669a4.988,4.988,0,0,0-.282-1.943,1.432,1.432,0,0,0-1.448-.879,1.6,1.6,0,0,0-1.55.784,4.227,4.227,0,0,0-.343,1.937v5.771a.274.274,0,0,1-.27.27h-3.4a.274.274,0,0,1-.27-.27v-11.641a.275.275,0,0,1,.27-.271h3.25a.275.275,0,0,1,.271.271v.822a3.385,3.385,0,0,1,.958-.653,5.291,5.291,0,0,1,2.242-.439,4.624,4.624,0,0,1,3.319,1.036,4.415,4.415,0,0,1,1.2,2.778c.034.255.057.53.068.823S1289.595,8605.37,1289.595,8605.662Zm-13.38-5.244v11.641a.275.275,0,0,1-.276.27h-4.067a.276.276,0,0,1-.276-.27v-11.641a.276.276,0,0,1,.276-.271h4.067A.276.276,0,0,1,1276.215,8600.418Zm0-3.78a2.321,2.321,0,0,1-.659,1.617l-.017.018a2.311,2.311,0,1,1,.676-1.635Z" transform="translate(-1271.595 -8594.329)" fill="#f5fafa"/>
</svg>
