<svg xmlns="http://www.w3.org/2000/svg" width="172.876" height="17.179" viewBox="0 0 172.876 17.179">
  <g id="Group_2676" data-name="Group 2676" transform="translate(19670.567 13129.697)">
    <path id="Path_6617" data-name="Path 6617" d="M297.453,468.511a22.052,22.052,0,0,0-2.771-.2,27.05,27.05,0,0,0-3.711.2c-.149,0-.1-.3-.05-.3,1.237-.149,1.782-.2,1.782-.891a12.065,12.065,0,0,0-.891-3.167l-.792-2.029h-5.592l-.841,2.029a10.231,10.231,0,0,0-1.089,3.167c0,.594.495.792,1.633.891.1,0,.149.3,0,.3a14.575,14.575,0,0,0-2.326-.2,11.317,11.317,0,0,0-2.474.2c-.1,0-.049-.3,0-.3,1.683-.149,2.326-1.188,3.514-4.058l5.246-11.976a.186.186,0,0,1,.3,0l4.5,11.976c1.089,3.068,1.534,3.91,3.613,4.058.05,0,.1.3-.049.3m-8.957-13.56-2.821,6.681h5.2Z" transform="translate(-19950.84 -13581.374)" fill="#fdfcfc"/>
    <path id="Path_6618" data-name="Path 6618" d="M377.214,468.908c-.149.4-.247.446-.594.446-.891,0-2.227-.149-4.009-.149-2.474,0-5.147.049-6.928.2-.149,0-.1-.3,0-.3,2.524-.3,2.524-.2,2.524-4.058v-7.423c0-3.86-.1-3.811-2.326-4.058-.05,0-.1-.3,0-.3a25.278,25.278,0,0,0,3.563.2,25.7,25.7,0,0,0,3.019-.2c.149,0,.1.3,0,.3-2.276.2-2.326.346-2.326,4.058v7.423c0,3.167.247,3.464,1.534,3.464h1.386c3.811,0,3.91-.247,4.206-1.683,0-.05.3-.05.3,0a20.268,20.268,0,0,1-.346,2.078" transform="translate(-20016.199 -13582.266)" fill="#fdfcfc"/>
    <path id="Path_6619" data-name="Path 6619" d="M435.623,457.625,430.377,469.6a.185.185,0,0,1-.3,0l-4.949-11.976c-1.188-3.019-1.435-3.86-3.662-4.058-.05,0-.1-.3.049-.3a21.367,21.367,0,0,0,2.771.2,26.624,26.624,0,0,0,3.712-.2c.149,0,.1.3,0,.3-1.138.149-1.732.2-1.732.891a12.915,12.915,0,0,0,.99,3.167l3.712,9.155,3.91-9.155a10.586,10.586,0,0,0,1.089-3.167c0-.594-.544-.792-1.683-.891-.049,0-.149-.3,0-.3a14.729,14.729,0,0,0,2.375.2,11.126,11.126,0,0,0,2.425-.2c.149,0,.1.3,0,.3-1.732.2-2.079.841-3.464,4.058" transform="translate(-20058.969 -13582.266)" fill="#fdfcfc"/>
    <path id="Path_6620" data-name="Path 6620" d="M512.409,469.205a24.071,24.071,0,0,0-3.514.2c-.149,0-.1-.3-.05-.3,2.227-.247,2.326-.2,2.326-4.058v-7.423c0-3.86-.1-3.811-2.326-4.058-.049,0-.1-.3.05-.3a24.1,24.1,0,0,0,3.514.2,25.7,25.7,0,0,0,3.019-.2c.149,0,.1.3,0,.3-2.276.2-2.276.346-2.276,4.058v7.423c0,3.712,0,3.86,2.276,4.058.1,0,.149.3,0,.3a25.716,25.716,0,0,0-3.019-.2" transform="translate(-20125.908 -13582.266)" fill="#fdfcfc"/>
    <path id="Path_6621" data-name="Path 6621" d="M554.649,456.49c-.1,0-.1-.3-.05-.3,1.633-.049,2.227-.94,2.227-1.534,0-.495-.3-.841-.94-1.237-.495-.247-.742-.4-.742-.841a.808.808,0,0,1,.891-.792,1.782,1.782,0,0,1,1.633,1.979c0,1.534-1.237,2.623-3.019,2.722" transform="translate(-20160.973 -13581.132)" fill="#fdfcfc"/>
    <path id="Path_6622" data-name="Path 6622" d="M588.8,468.727a6.443,6.443,0,0,1-4.355-1.633c-.1-.1.1-1.485.148-3.217,0-.049.3-.049.3,0,.2,2.574,1.584,4.305,4.108,4.305a3.038,3.038,0,0,0,3.316-3.019c0-4.108-7.275-4.157-7.275-8.66a4.616,4.616,0,0,1,4.652-4.5,6.367,6.367,0,0,1,3.167.742,6.2,6.2,0,0,1,.3,2.623c0,.1-.3.1-.3.049a3.126,3.126,0,0,0-3.316-2.87,2.8,2.8,0,0,0-3.019,2.623c0,3.959,7.126,3.86,7.126,8.611a4.788,4.788,0,0,1-4.85,4.949" transform="translate(-20183.842 -13581.293)" fill="#fdfcfc"/>
    <path id="Path_6623" data-name="Path 6623" d="M678.806,469.3c-.891,0-3.068-.1-3.662-.1a30.7,30.7,0,0,0-3.909.2c-.149,0-.05-.3,0-.3,2.227-.247,2.326-.2,2.326-4.058v-7.423c0-3.86-.1-3.811-2.326-4.058-.05,0-.149-.3,0-.3a34.437,34.437,0,0,0,4.157.2c.594,0,2.821-.1,3.712-.1,5.74,0,8.611,3.365,8.611,7.72,0,4.454-3.563,8.215-8.908,8.215m-.445-15.391a15.764,15.764,0,0,0-2.623.149,17.5,17.5,0,0,0-.248,3.514v8.364c0,2.524.346,2.821,3.959,2.821,3.514,0,6.285-2.524,6.285-6.879C685.734,456.586,682.864,453.913,678.36,453.913Z" transform="translate(-20250.289 -13582.266)" fill="#fdfcfc"/>
    <path id="Path_6624" data-name="Path 6624" d="M775.225,469.587c-5.592,0-8.413-3.91-9.5-7.819a8.83,8.83,0,0,1-1.93.2,6.316,6.316,0,0,1-1.039-.05v2.969c0,3.712.049,3.86,2.326,4.058.05,0,.148.3,0,.3a25.7,25.7,0,0,0-3.019-.2,24.8,24.8,0,0,0-3.563.2c-.1,0-.05-.3,0-.3,2.227-.247,2.326-.2,2.326-4.058v-7.473c0-2.87-.1-3.761-1.485-3.761a6.749,6.749,0,0,0-.94.1c-.05,0-.149-.247,0-.3a28.824,28.824,0,0,1,6.038-.4c3.464,0,6.285,1.089,6.285,3.811a4.926,4.926,0,0,1-3.365,4.4c1.287,3.662,5.147,8.017,7.918,8.017.049,0,.1.3-.049.3M764.09,453.6a8,8,0,0,0-1.089.05,15.719,15.719,0,0,0-.247,3.563v4.157a6.957,6.957,0,0,0,1.039.05c3.662,0,4.949-1.386,4.949-3.514C768.742,454.444,766.565,453.6,764.09,453.6Z" transform="translate(-20317.064 -13582.104)" fill="#fdfcfc"/>
    <path id="Path_6625" data-name="Path 6625" d="M841.182,469.205a24.072,24.072,0,0,0-3.514.2c-.149,0-.1-.3-.05-.3,2.227-.247,2.326-.2,2.326-4.058v-7.423c0-3.86-.1-3.811-2.326-4.058-.049,0-.1-.3.05-.3a24.1,24.1,0,0,0,3.514.2,25.713,25.713,0,0,0,3.019-.2c.148,0,.1.3,0,.3-2.276.2-2.326.346-2.326,4.058v7.423c0,3.712.05,3.86,2.326,4.058.1,0,.148.3,0,.3a25.726,25.726,0,0,0-3.019-.2" transform="translate(-20377.775 -13582.266)" fill="#fdfcfc"/>
    <path id="Path_6626" data-name="Path 6626" d="M897.947,456.091c-.346-1.633-.346-2.029-4.107-2.029h-2.722a26.219,26.219,0,0,0-.148,3.415v3.365H892.7c3.217,0,3.217-.4,3.415-1.287,0-.05.3-.05.3,0a9.414,9.414,0,0,0-.2,1.831,8.8,8.8,0,0,0,.049,1.188c.05.149-.247.149-.3.05-.149-.99-.445-1.237-3.266-1.237h-1.732v3.662c0,3.86,0,3.86,2.425,4.058.05,0,.1.3,0,.3a28.371,28.371,0,0,0-3.118-.2,21.955,21.955,0,0,0-3.365.2c-.1,0-.049-.3,0-.3,1.93-.2,2.079-.247,2.079-4.058v-7.423c0-3.91,0-3.761-2.524-4.058-.049,0-.1-.3,0-.3,1.782.148,4.256.2,6.73.2,1.782,0,3.316-.149,4.206-.149.347,0,.495.05.594.445.149.594.149,1.683.247,2.276,0,.1-.3.1-.3.05" transform="translate(-20415.191 -13582.266)" fill="#fdfcfc"/>
    <path id="Path_6627" data-name="Path 6627" d="M967.4,452.361a11.663,11.663,0,0,0,.049,1.336c0,.049-.3,0-.3,0-.2-1.138-.594-1.732-3.811-1.732h-2.623v10.788c0,3.712,0,3.86,2.326,4.058.049,0,.1.3-.05.3a26.833,26.833,0,0,0-6.532,0c-.149,0-.1-.3,0-.3,2.177-.247,2.276-.2,2.276-4.058V451.965h-2.722c-3.118,0-3.662.544-3.91,1.732,0,0-.3.049-.3,0a13.2,13.2,0,0,0,.148-2.079,5.1,5.1,0,0,0-.148-1.287c0-.1.3-.049.3,0,.2.841.3.94,3.91.94h7.324c3.613,0,3.811-.1,4.009-.94,0-.049.3-.1.247,0a10.79,10.79,0,0,0-.2,2.029" transform="translate(-20465.299 -13579.972)" fill="#fdfcfc"/>
  </g>
</svg>
