<svg xmlns="http://www.w3.org/2000/svg" width="64" height="64.002" viewBox="0 0 64 64.002">
  <g id="Group_3059" data-name="Group 3059" transform="translate(-1470 -421)">
    <path id="Path_4" data-name="Path 4" d="M32,0A32,32,0,0,0,9.373,54.627,32,32,0,1,0,54.626,9.373,31.784,31.784,0,0,0,32,0ZM51.8,51.8A28,28,0,1,1,12.2,12.2,28,28,0,0,1,51.8,51.8Z" transform="translate(1470 421.001)" fill="#f5ecdd"/>
    <path id="Path_5" data-name="Path 5" d="M42.236,30.428l-14-11A2,2,0,0,0,25,21V43a2,2,0,0,0,3.236,1.572l14-11a2,2,0,0,0,0-3.144ZM29,38.885V25.115L37.763,32Z" transform="translate(1470 421.001)" fill="#f5ecdd"/>
  </g>
</svg>
