<svg xmlns="http://www.w3.org/2000/svg" width="25.096" height="25.715" viewBox="0 0 25.096 25.715">
  <g id="Group_2626" data-name="Group 2626" transform="translate(-10.941 -9.457)">
    <path id="Path_6821" data-name="Path 6821" d="M35.508,32.094l-7.888-7.888a8.878,8.878,0,0,0,1.7-5.227,1.775,1.775,0,0,0-.03-.291,1.791,1.791,0,0,0,.03-.3A8.946,8.946,0,0,0,20.39,9.457a1.826,1.826,0,0,0-.256.026,1.835,1.835,0,0,0-.256-.026,8.946,8.946,0,0,0-8.936,8.935,1.748,1.748,0,0,0,.03.292,1.753,1.753,0,0,0-.03.3,8.946,8.946,0,0,0,8.935,8.936,1.792,1.792,0,0,0,.257-.026,1.77,1.77,0,0,0,.256.026,8.866,8.866,0,0,0,4.569-1.271l8,8a1.8,1.8,0,1,0,2.55-2.55Zm-15.375-7.76a1.788,1.788,0,0,0-.257-.026,5.334,5.334,0,0,1-5.328-5.328,1.74,1.74,0,0,0-.03-.291,1.757,1.757,0,0,0,.03-.3,5.335,5.335,0,0,1,5.329-5.328,1.84,1.84,0,0,0,.256-.025,1.821,1.821,0,0,0,.256.025,5.334,5.334,0,0,1,5.328,5.328,1.782,1.782,0,0,0,.03.292,1.787,1.787,0,0,0-.03.3,5.334,5.334,0,0,1-5.328,5.328A1.765,1.765,0,0,0,20.133,24.334Z" fill="#fdfcfc"/>
  </g>
</svg>
